<svg width="676" height="719" viewBox="0 0 676 719" fill="none" xmlns="http://www.w3.org/2000/svg">
<rect x="230.816" y="408.232" width="56" height="128" rx="28" fill="white"/>
<rect x="307.816" y="344.232" width="57" height="192" rx="28.5" fill="white"/>
<rect x="385.816" y="408.232" width="56" height="128" rx="28" fill="white"/>
<path d="M309.24 2.81778C332.991 -2.78502 364.866 0.176373 384.862 9.84512C395.055 14.7749 396.585 16.3263 399.893 25.1234L404.136 33.5951C410.56 43.278 428.34 80.9118 432.193 86.4018L456.213 132.735C457.353 134.109 458.976 140.257 463.346 148.495L475.175 170.29C479.234 177.671 489.123 195.946 490.476 197.491C492.445 199.736 494.661 205.013 494.732 207.62C494.81 210.722 493.84 211.828 479.241 225.364L447.365 256.368C419.89 283.602 410.051 294.479 404.35 293.96C383.559 255.656 344.671 184.709 343.007 184.502C340.452 179.893 337.596 175.807 332.204 186.143L327.196 195.082C319.447 207.584 308.992 228.154 305.245 234.04L290.986 259.895C286.828 267.609 290.497 259.527 277.414 285.02C270.09 299.293 271.67 295.263 268.263 301.751L259.309 318.333C258.916 318.829 252.188 332.106 246.275 341.708C240.226 351.54 226.584 379.88 223.403 385.328L208.295 413.958C197.599 434.932 189.701 447.293 182.561 461.148C175.902 474.068 162.67 498.336 154.971 510.442L121.502 571.209C117.946 576.642 115.948 586.885 109.828 581.991C107.667 580.261 93.0621 563.276 88.9892 557.751C67.463 528.575 74.6597 537.068 71.0049 531.67C68.4903 527.952 56.3841 505.242 55.6474 502.855C54.9247 500.517 50.7598 491.975 49.6406 487.237L46.7012 478.219C43.9741 471.278 44.0668 470.491 48.6709 462.218C56.1863 448.731 62.7382 438.325 69.2549 424.938L95.4775 373.229L104.098 357.356C105.536 355.557 115 337.755 120.128 327.187C132.226 302.275 145.231 277.299 152.173 265.179L170.065 230.499C171.928 224.599 181.654 207.549 190.671 190.003L207.303 159.311C210.583 153.814 229.601 116.626 234.142 107.956C239.143 98.4149 257.694 62.9772 260.641 58.8334C262.419 56.34 267.795 44.4893 267.81 43.0443C267.825 41.4565 273.987 31.5047 279.497 20.4555C284.307 10.8153 290.222 7.30857 309.24 2.81778Z" fill="#EAFF00"/>
<path fill-rule="evenodd" clip-rule="evenodd" d="M294.889 709.123C252.884 688.248 246.438 681.392 240.177 679.075C237.917 678.24 204.441 656.642 194.843 649.828L153.051 618.647C132.793 603.354 132.431 602.816 137.361 595.187C140.938 589.655 148.489 574.107 152.916 566.606L162.026 549.683C173.487 527.151 171.503 528.724 179.798 535.559C212.268 562.32 239.291 582.246 255.052 591.05C268.737 598.7 264.012 597.163 285.156 608.667L313.49 622.777C338.012 635.201 341.157 635.392 359.532 625.631L385.386 611.96C391.223 607.965 404.731 600.861 417.615 592.665L435.642 581.892C440.983 578.824 448.499 572.421 452.586 569.843C458.493 566.124 478.008 552.071 492.897 537.096C503.119 526.811 504.068 526.882 509.26 538.322C512.292 544.994 513.687 546.312 522.442 561.293C527.195 569.425 540.363 596.377 541.921 598.127C545.392 602.03 543.954 605.642 537.119 610.19C527.011 616.919 513.857 627.303 503.565 635.102C485.552 648.737 457.799 665.27 441.345 675.661C432.087 681.505 418.628 689.856 417.644 689.856L411.793 693.157C378.798 712.906 364.136 718.126 340.406 718.587L324.469 718.126C305.974 714.053 302.985 713.147 294.889 709.123Z" fill="#EAFF00"/>
<path fill-rule="evenodd" clip-rule="evenodd" d="M31.9324 432.036C31.0541 430.385 29.772 418.995 29.4178 417.819C28.9715 416.339 25.9186 398.021 23.7582 390.584C21.4844 382.764 19.494 368.292 18.1269 364.021C16.7598 359.75 14.5781 344.57 12.4177 336.594C9.06725 324.262 7.72141 299.449 6.41807 291.771C4.72514 281.762 3.20221 254.307 1.76429 243.249C-1.85532 215.518 0.354695 172.076 6.0214 159.347L9.60559 149.777C14.1319 133.825 51.0363 92.0193 60.5988 92.0193C60.5634 92.0193 87.8557 76.4287 94.259 74.6225C98.0345 73.56 108.065 69.565 115.509 66.1508C122.132 63.112 126.432 62.6516 128.968 61.0011C131.433 59.3932 169.3 47.1815 178.905 42.9314L186.662 40.2893C197.875 37.8668 217.248 28.9772 221.384 28.9772C222.504 28.9772 246.396 20.4701 249.208 19.3084C253.628 17.4809 242.068 37.8668 241.027 39.9564C239.362 43.2927 236.507 45.7436 228.61 60.8524L208.181 98.0543C196.727 119.807 183.588 132.31 172.084 132.402L135.697 147.029L118.697 155.295C97.7016 166.664 87.6503 173.478 84.9869 188.757C83.3223 198.334 84.5477 232.001 87.0623 245.729L89.6619 262.729C91.3903 282.973 97.907 311.25 93.0903 320.479C90.1294 326.139 89.8674 329.723 87.1757 334.979C82.6281 343.876 68.4543 369.921 67.1368 373.584C66.1947 376.212 61.9943 383.04 61.3143 385.271L43.3933 417.338C38.2012 426.234 35.3962 438.503 31.9324 432.036Z" fill="#EAFF00"/>
<path fill-rule="evenodd" clip-rule="evenodd" d="M643.279 431.843C644.157 430.193 645.439 418.803 645.793 417.627C646.239 416.146 649.292 397.829 651.453 390.391C653.727 382.571 655.717 368.1 657.084 363.829C658.451 359.557 660.633 344.378 662.793 336.402C666.144 324.07 667.49 299.257 668.793 291.578C670.486 281.569 672.009 254.114 673.447 243.057C677.066 215.326 674.856 171.883 669.19 159.154L665.605 149.585C661.079 133.633 624.175 91.8269 614.612 91.8269C614.648 91.8269 587.355 76.2364 580.952 74.4301C577.176 73.3676 567.146 69.3726 559.702 65.9584C553.079 62.9196 548.779 62.4592 546.243 60.8088C543.778 59.2008 505.911 46.9891 496.306 42.7391L488.549 40.097C477.336 37.6744 457.963 28.7848 453.826 28.7848C452.707 28.7848 428.815 20.2777 426.003 19.116C421.583 17.2885 433.143 37.6744 434.184 39.764C435.849 43.1003 438.703 45.5512 446.601 60.66L467.03 97.8619C478.484 119.615 491.623 132.117 503.127 132.209L539.514 146.836L556.514 155.103C577.509 166.472 587.561 173.286 590.224 188.565C591.889 198.141 590.663 231.809 588.149 245.536L585.549 262.536C583.821 282.781 577.304 311.057 582.121 320.287C585.081 325.947 585.344 329.531 588.035 334.787C592.583 343.684 606.757 369.729 608.074 373.391C609.016 376.019 613.217 382.848 613.897 385.079L631.818 417.145C637.01 426.042 639.815 438.31 643.279 431.843Z" fill="#EAFF00"/>
<path d="M485.248 188.358C494.214 205.778 503.82 222.64 505.671 228.5L523.563 263.18C530.505 275.3 543.51 300.276 555.608 325.188C560.737 335.756 570.201 353.556 571.639 355.356L580.259 371.23L606.481 422.939C612.998 436.326 619.55 446.732 627.065 460.218C631.669 468.491 631.762 469.278 629.035 476.22L626.096 485.237C624.976 489.975 620.811 498.518 620.089 500.856C619.351 503.245 607.246 525.953 604.731 529.671C601.077 535.068 608.273 526.577 586.747 555.752C582.674 561.278 568.069 578.263 565.908 579.991C559.788 584.886 557.79 574.643 554.234 569.21L520.766 508.442C513.066 496.336 499.834 472.069 493.176 459.149C486.036 445.294 478.137 432.933 467.441 411.959L452.333 383.328C449.153 377.881 435.51 349.542 429.461 339.709C423.547 330.106 416.819 316.826 416.428 316.333L407.474 299.751C405.449 295.895 405.186 295.754 403.768 293.278L485.248 188.358Z" fill="#EAFF00"/>
<path d="M322.786 199.916C318.44 208.102 313.721 217.23 313.038 218.229C309.914 222.791 303.326 239.402 291.738 257.662C266.685 297.13 285.037 310.539 228.371 254.368L196.495 223.365C192.23 219.41 189.13 216.514 186.878 214.322L277.032 63.7766L322.786 199.916Z" fill="#EAFF00"/>
</svg>
